<svg aria-hidden="true" viewBox="0 0 34 36" fill="none" xmlns="http://www.w3.org/2000/svg">
<path d="M29.8592 0H3.58311C2.63281 0 1.72143 0.395784 1.04947 1.10028C0.377505 1.80478 0 2.76029 0 3.7566L0 31.305C0 32.3013 0.377505 33.2568 1.04947 33.9613C1.72143 34.6658 2.63281 35.0616 3.58311 35.0616H13.8286V23.1414H9.12573V17.5308H13.8286V13.2545C13.8286 8.39052 16.5905 5.70377 20.8208 5.70377C22.8468 5.70377 24.9653 6.08256 24.9653 6.08256V10.8566H22.6311C20.3312 10.8566 19.6138 12.353 19.6138 13.8877V17.5308H24.7481L23.927 23.1414H19.6138V35.0616H29.8592C30.8095 35.0616 31.7209 34.6658 32.3929 33.9613C33.0648 33.2568 33.4423 32.3013 33.4423 31.305V3.7566C33.4423 2.76029 33.0648 1.80478 32.3929 1.10028C31.7209 0.395784 30.8095 0 29.8592 0Z" fill="currentColor"/>
</svg>
