<svg aria-hidden="true" viewBox="0 0 35 36" fill="none" xmlns="http://www.w3.org/2000/svg">
<path d="M17.4287 13.4721C16.6344 13.4724 15.8581 13.7197 15.1978 14.1825C14.5375 14.6454 14.023 15.3031 13.7192 16.0726C13.4155 16.842 13.3362 17.6886 13.4913 18.5053C13.6464 19.322 14.0291 20.0721 14.5908 20.6609C15.1526 21.2496 15.8682 21.6505 16.6472 21.8128C17.4263 21.9751 18.2337 21.8917 18.9675 21.5729C19.7013 21.2542 20.3285 20.7145 20.7697 20.0221C21.211 19.3296 21.4465 18.5156 21.4465 17.6829C21.4457 16.5661 21.0221 15.4953 20.2687 14.7058C19.5154 13.9163 18.4939 13.4725 17.4287 13.4721ZM26.8188 10.2355C26.6144 9.69229 26.3056 9.19889 25.9117 8.78594C25.5179 8.37299 25.0472 8.04929 24.5291 7.83493C22.9479 7.1805 19.1831 7.32734 17.4287 7.32734C15.6743 7.32734 11.9133 7.17498 10.3276 7.83493C9.80943 8.04929 9.33882 8.37299 8.94494 8.78594C8.55105 9.19889 8.24231 9.69229 8.03785 10.2355C7.4144 11.8933 7.5537 15.8443 7.5537 17.6821C7.5537 19.5198 7.4144 23.4661 8.04086 25.1294C8.24532 25.6726 8.55407 26.166 8.94795 26.579C9.34183 26.9919 9.81244 27.3156 10.3306 27.53C11.9118 28.1844 15.6766 28.0376 17.4317 28.0376C19.1869 28.0376 22.9464 28.19 24.5321 27.53C25.0503 27.3156 25.5209 26.9919 25.9147 26.579C26.3086 26.166 26.6174 25.6726 26.8218 25.1294C27.4506 23.4716 27.306 19.5206 27.306 17.6829C27.306 15.8451 27.4506 11.8996 26.8218 10.2363L26.8188 10.2355ZM17.4287 24.1561C16.2076 24.1561 15.0138 23.7764 13.9985 23.0651C12.9831 22.3538 12.1918 21.3429 11.7245 20.16C11.2571 18.9772 11.1349 17.6757 11.3731 16.42C11.6113 15.1643 12.1994 14.0109 13.0629 13.1056C13.9263 12.2003 15.0265 11.5838 16.2242 11.3341C17.4219 11.0843 18.6633 11.2125 19.7915 11.7024C20.9197 12.1924 21.884 13.022 22.5624 14.0865C23.2408 15.1511 23.603 16.4026 23.603 17.6829C23.6039 18.5332 23.4449 19.3754 23.135 20.1613C22.825 20.9471 22.3703 21.6611 21.7968 22.2624C21.2232 22.8637 20.5422 23.3405 19.7927 23.6654C19.0431 23.9904 18.2398 24.1571 17.4287 24.1561ZM23.8575 12.449C23.5724 12.4492 23.2937 12.3607 23.0566 12.1948C22.8195 12.0289 22.6347 11.7929 22.5255 11.5169C22.4163 11.2408 22.3876 10.937 22.4431 10.6438C22.4987 10.3507 22.6359 10.0814 22.8374 9.87C23.0389 9.65861 23.2957 9.51463 23.5753 9.45627C23.8548 9.3979 24.1446 9.42778 24.408 9.54211C24.6714 9.65645 24.8965 9.85011 25.0549 10.0986C25.2133 10.3471 25.2979 10.6392 25.2979 10.9381C25.2986 11.1366 25.2621 11.3333 25.1902 11.5169C25.1183 11.7005 25.0126 11.8674 24.879 12.0081C24.7455 12.1487 24.5868 12.2604 24.412 12.3366C24.2372 12.4128 24.0498 12.4521 23.8605 12.4522L23.8575 12.449ZM30.6807 0H4.17669C3.21815 0 2.29886 0.399217 1.62107 1.10983C0.943279 1.82044 0.5625 2.78423 0.5625 3.78918L0.5625 31.5765C0.5625 32.5815 0.943279 33.5453 1.62107 34.2559C2.29886 34.9665 3.21815 35.3657 4.17669 35.3657H30.6807C31.6393 35.3657 32.5586 34.9665 33.2364 34.2559C33.9141 33.5453 34.2949 32.5815 34.2949 31.5765V3.78918C34.2949 2.78423 33.9141 1.82044 33.2364 1.10983C32.5586 0.399217 31.6393 0 30.6807 0ZM29.3917 22.893C29.2945 24.9163 28.8541 26.709 27.4453 28.1821C26.0365 29.6551 24.328 30.1264 22.4005 30.2227C20.4119 30.3403 14.45 30.3403 12.4615 30.2227C10.5316 30.1209 8.8277 29.6583 7.41666 28.1821C6.00562 26.7059 5.56213 24.9123 5.47027 22.893C5.35808 20.8074 5.35808 14.556 5.47027 12.4727C5.5674 10.4495 6.00261 8.65671 7.41666 7.18366C8.83071 5.71062 10.5392 5.24486 12.4615 5.14855C14.45 5.03093 20.4119 5.03093 22.4005 5.14855C24.3303 5.25039 26.0395 5.71299 27.4453 7.18919C28.8511 8.66539 29.2998 10.4589 29.3917 12.4822C29.5039 14.5599 29.5039 20.8058 29.3917 22.893Z" fill="currentColor"/>
</svg>
