<svg aria-hidden="true" viewBox="0 0 35 36" fill="none" xmlns="http://www.w3.org/2000/svg">
<path d="M31.737 0H2.81599C1.49079 0 0.414062 1.14465 0.414062 2.54981V32.8159C0.414062 34.2211 1.49079 35.3657 2.81599 35.3657H31.737C33.0622 35.3657 34.1465 34.2211 34.1465 32.8159V2.54981C34.1465 1.14465 33.0622 0 31.737 0ZM10.6091 30.3135H5.60946V13.4358H10.6166V30.3135H10.6091ZM8.10927 11.1307C6.50548 11.1307 5.21039 9.76504 5.21039 8.09149C5.21039 6.41793 6.50548 5.05225 8.10927 5.05225C9.70554 5.05225 11.0082 6.41793 11.0082 8.09149C11.0082 9.77294 9.71307 11.1307 8.10927 11.1307ZM29.3502 30.3135H24.3505V22.1036C24.3505 20.1458 24.3129 17.6276 21.7528 17.6276C19.1476 17.6276 18.7485 19.759 18.7485 21.9615V30.3135H13.7489V13.4358H18.5452V15.7409H18.613C19.2831 14.4147 20.9171 13.0174 23.3491 13.0174C28.409 13.0174 29.3502 16.5145 29.3502 21.0616V30.3135Z" fill="currentColor"/>
</svg>
