<svg aria-hidden="true" viewBox="0 0 34 36" fill="none" xmlns="http://www.w3.org/2000/svg">
<path d="M30.3858 0H3.88177C1.88643 0 0.267578 1.69724 0.267578 3.78918V31.5765C0.267578 33.6685 1.88643 35.3657 3.88177 35.3657H30.3858C32.3811 35.3657 34 33.6685 34 31.5765V3.78918C34 1.69724 32.3811 0 30.3858 0ZM26.7039 12.5359C26.7189 12.7569 26.7189 12.9859 26.7189 13.2069C26.7189 20.0511 21.7494 27.9373 12.6688 27.9373C9.86777 27.9373 7.27007 27.0848 5.0865 25.6165C5.48556 25.6638 5.86957 25.6796 6.27617 25.6796C8.58774 25.6796 10.7111 24.8586 12.4052 23.4693C10.2367 23.4219 8.41456 21.9299 7.78961 19.8774C8.55009 19.9958 9.23528 19.9958 10.0184 19.7827C7.75949 19.3012 6.06534 17.2171 6.06534 14.6989V14.6357C6.72041 15.0225 7.48843 15.2594 8.29409 15.2909C7.61675 14.8186 7.06149 14.1778 6.67785 13.4257C6.29421 12.6736 6.09413 11.8336 6.09546 10.9807C6.09546 10.0177 6.3364 9.13351 6.76559 8.36778C9.19764 11.5096 12.8495 13.5621 16.9456 13.7832C16.2453 10.2703 18.7526 7.42049 21.7645 7.42049C23.1876 7.42049 24.4676 8.04412 25.3711 9.05457C26.4855 8.83354 27.5547 8.39936 28.5034 7.8073C28.1345 9.00721 27.3589 10.0177 26.3349 10.6571C27.3288 10.5466 28.2926 10.2545 29.1811 9.85188C28.511 10.886 27.6676 11.8017 26.7039 12.5359Z" fill="currentColor"/>
</svg>
