<svg aria-hidden="true" viewBox="0 0 35 37" fill="none" xmlns="http://www.w3.org/2000/svg">
<path fill-rule="evenodd" clip-rule="evenodd" d="M4 0C1.79077 0 0 1.79083 0 4V33C0 35.2092 1.79077 37 4 37H31C33.2092 37 35 35.2092 35 33V4C35 1.79083 33.2092 0 31 0H4ZM27.3157 8L19.4978 16.8921L28 29H21.7468L16.021 20.8465L8.85254 29H7L15.1987 19.6753L7 8H13.2532L18.6748 15.7209L25.4631 8H27.3157ZM16.1296 18.6155L16.9604 19.7781L22.6184 27.6974H25.4639L18.5305 17.993L17.6997 16.8304L12.3657 9.36469H9.52026L16.1296 18.6155Z" fill="currentColor"/>
</svg>
