<svg width="426" height="346" viewBox="0 0 426 346" fill="none" xmlns="http://www.w3.org/2000/svg">
<g clip-path="url(#clip0_1498_111294)">
<path d="M335.406 269.333C335.313 269.177 335.166 269.066 334.99 269.021C334.815 268.975 334.631 269.001 334.475 269.095L332.219 270.432L330.886 268.169C330.792 268.013 330.645 267.902 330.469 267.857C330.294 267.811 330.11 267.837 329.954 267.931C329.799 268.024 329.688 268.172 329.643 268.348C329.598 268.524 329.623 268.708 329.716 268.865L331.05 271.127L328.794 272.464C328.638 272.558 328.528 272.705 328.482 272.881C328.437 273.057 328.462 273.242 328.556 273.398C328.649 273.554 328.796 273.665 328.972 273.71C329.147 273.756 329.331 273.73 329.487 273.636L331.743 272.299L333.077 274.562C333.227 274.817 333.518 274.937 333.793 274.883C333.866 274.868 333.937 274.84 334.005 274.8C334.328 274.61 334.435 274.19 334.246 273.866L332.912 271.604L335.168 270.267C335.491 270.077 335.599 269.657 335.409 269.333H335.406Z" fill="#DEDEDE"/>
<path d="M341.121 284.301C339.488 284.301 338.16 282.97 338.16 281.332C338.16 279.694 339.488 278.363 341.121 278.363C342.754 278.363 344.082 279.694 344.082 281.332C344.082 282.97 342.754 284.301 341.121 284.301ZM341.121 279.952C340.362 279.952 339.743 280.571 339.743 281.335C339.743 282.098 340.36 282.717 341.121 282.717C341.883 282.717 342.5 282.098 342.5 281.335C342.5 280.571 341.883 279.952 341.121 279.952Z" fill="#DEDEDE"/>
<path d="M42.1328 327.869C40.4995 327.869 39.1719 326.538 39.1719 324.9C39.1719 323.262 40.4995 321.931 42.1328 321.931C43.7661 321.931 45.0937 323.262 45.0937 324.9C45.0937 326.538 43.7661 327.869 42.1328 327.869ZM42.1328 323.52C41.3742 323.52 40.7542 324.139 40.7542 324.903C40.7542 325.666 41.3713 326.285 42.1328 326.285C42.8943 326.285 43.5114 325.666 43.5114 324.903C43.5114 324.139 42.8943 323.52 42.1328 323.52Z" fill="#DEDEDE"/>
<path d="M369.941 8.64944C368.308 8.64944 366.98 7.3181 366.98 5.68019C366.98 4.04227 368.308 2.71094 369.941 2.71094C371.574 2.71094 372.902 4.04227 372.902 5.68019C372.902 7.3181 371.574 8.64944 369.941 8.64944ZM369.941 4.30059C369.182 4.30059 368.562 4.91942 368.562 5.68303C368.562 6.44663 369.179 7.06546 369.941 7.06546C370.702 7.06546 371.319 6.44663 371.319 5.68303C371.319 4.91942 370.702 4.30059 369.941 4.30059Z" fill="#DEDEDE"/>
<path d="M420.613 83.8314C420.449 83.9109 420.327 84.05 420.268 84.2232C420.208 84.3963 420.219 84.5808 420.299 84.7426L421.445 87.1044L419.09 88.2541C418.926 88.3336 418.804 88.4726 418.745 88.6458C418.685 88.819 418.697 89.0035 418.776 89.1653C418.855 89.3299 418.994 89.452 419.166 89.5116C419.339 89.5712 419.523 89.5599 419.684 89.4804L422.04 88.3307L423.186 90.6925C423.265 90.8571 423.404 90.9792 423.577 91.0388C423.749 91.0984 423.933 91.0871 424.095 91.0076C424.259 90.9281 424.381 90.789 424.44 90.6158C424.5 90.4427 424.488 90.2582 424.409 90.0964L423.263 87.7346L425.618 86.5849C425.884 86.4543 426.028 86.1733 425.994 85.8951C425.986 85.8213 425.966 85.7475 425.929 85.6766C425.765 85.3388 425.357 85.1968 425.02 85.3615L422.665 86.5111L421.519 84.1494C421.355 83.8116 420.947 83.6696 420.61 83.8343L420.613 83.8314Z" fill="#DEDEDE"/>
<path d="M377.844 140.327C376.211 140.327 374.883 138.995 374.883 137.357C374.883 135.72 376.211 134.388 377.844 134.388C379.478 134.388 380.805 135.72 380.805 137.357C380.805 138.995 379.478 140.327 377.844 140.327ZM377.844 135.978C377.086 135.978 376.466 136.597 376.466 137.36C376.466 138.124 377.083 138.743 377.844 138.743C378.606 138.743 379.223 138.124 379.223 137.36C379.223 136.597 378.606 135.978 377.844 135.978Z" fill="#DEDEDE"/>
<path d="M0.362573 181.712C0.229529 181.837 0.1531 182.004 0.147439 182.186C0.141777 182.368 0.206884 182.541 0.331435 182.674L2.12328 184.591L0.212545 186.387C0.0795015 186.512 0.00307216 186.68 -0.00258927 186.861C-0.0082507 187.043 0.0568557 187.216 0.181407 187.35C0.305959 187.483 0.472971 187.56 0.654137 187.565C0.835302 187.571 1.00798 187.506 1.14102 187.381L3.05175 185.584L4.8436 187.5C4.96815 187.634 5.13516 187.71 5.31632 187.716C5.49749 187.722 5.67016 187.656 5.80321 187.531C5.93625 187.406 6.01268 187.239 6.01834 187.057C6.024 186.876 5.9589 186.702 5.83435 186.569L4.0425 184.653L5.95324 182.856C6.16837 182.655 6.22215 182.342 6.10892 182.084C6.07779 182.016 6.03816 181.951 5.98154 181.894C5.72395 181.618 5.29368 181.607 5.02193 181.863L3.1112 183.659L1.31935 181.743C1.06176 181.468 0.631491 181.457 0.359742 181.712H0.362573Z" fill="#DEDEDE"/>
<path d="M29.5332 214.351C27.8999 214.351 26.5723 213.02 26.5723 211.382C26.5723 209.744 27.8999 208.413 29.5332 208.413C31.1665 208.413 32.4941 209.744 32.4941 211.382C32.4941 213.02 31.1665 214.351 29.5332 214.351ZM29.5332 210.002C28.7746 210.002 28.1546 210.621 28.1546 211.385C28.1546 212.148 28.7717 212.767 29.5332 212.767C30.2947 212.767 30.9118 212.148 30.9118 211.385C30.9118 210.621 30.2947 210.002 29.5332 210.002Z" fill="#DEDEDE"/>
<path d="M80.4974 307.658C80.1804 307.658 79.9143 307.408 79.8973 307.087C79.8775 306.755 80.1323 306.469 80.4663 306.452C82.4535 306.341 84.4633 306.139 86.4419 305.861C86.7703 305.816 87.076 306.046 87.1213 306.375C87.1666 306.704 86.9373 307.011 86.609 307.056C84.5963 307.34 82.5525 307.544 80.5314 307.658C80.5201 307.658 80.5088 307.658 80.4974 307.658ZM72.0251 307.632C72.0251 307.632 71.9996 307.632 71.9855 307.632C69.9615 307.505 67.9177 307.289 65.9136 306.991C65.5852 306.943 65.3588 306.633 65.4069 306.304C65.455 305.975 65.7636 305.748 66.0919 305.796C68.0621 306.091 70.0719 306.301 72.0619 306.426C72.3931 306.446 72.645 306.733 72.6252 307.068C72.6054 307.388 72.3393 307.635 72.0251 307.635V307.632ZM94.8322 305.387C94.5661 305.387 94.3198 305.208 94.2491 304.936C94.1641 304.612 94.3566 304.283 94.6793 304.198C96.6099 303.69 98.5404 303.093 100.417 302.426C100.731 302.316 101.074 302.48 101.187 302.793C101.3 303.105 101.133 303.451 100.822 303.565C98.9141 304.243 96.9524 304.851 94.9879 305.367C94.9369 305.381 94.886 305.387 94.835 305.387H94.8322ZM57.7074 305.248C57.6536 305.248 57.6026 305.242 57.5488 305.225C55.5928 304.689 53.6368 304.064 51.7317 303.363C51.4203 303.25 51.259 302.9 51.3722 302.588C51.4854 302.276 51.8336 302.114 52.145 302.228C54.0189 302.915 55.941 303.531 57.8659 304.059C58.1857 304.147 58.3754 304.479 58.2877 304.799C58.2141 305.069 57.9706 305.245 57.7074 305.245V305.248ZM108.422 300.292C108.202 300.292 107.987 300.17 107.882 299.957C107.735 299.659 107.856 299.295 108.154 299.148C109.94 298.259 111.709 297.286 113.416 296.249C113.702 296.076 114.07 296.167 114.242 296.454C114.415 296.74 114.324 297.11 114.039 297.283C112.306 298.336 110.506 299.327 108.689 300.229C108.604 300.272 108.51 300.292 108.422 300.292ZM44.1652 300.013C44.0746 300.013 43.9812 299.994 43.8935 299.948C42.0875 299.028 40.2956 298.021 38.5689 296.953C38.2858 296.777 38.1981 296.406 38.3736 296.122C38.5491 295.838 38.9199 295.75 39.203 295.926C40.9014 296.976 42.6621 297.97 44.4398 298.872C44.737 299.023 44.8559 299.386 44.7059 299.684C44.5983 299.894 44.3888 300.016 44.168 300.016L44.1652 300.013ZM120.696 292.545C120.518 292.545 120.34 292.465 120.221 292.312C120.017 292.048 120.062 291.671 120.326 291.463C121.897 290.231 123.434 288.917 124.894 287.557C125.138 287.33 125.52 287.344 125.746 287.589C125.973 287.833 125.959 288.216 125.715 288.443C124.229 289.825 122.667 291.163 121.07 292.414C120.96 292.5 120.829 292.542 120.699 292.542L120.696 292.545ZM31.9478 292.159C31.8176 292.159 31.6846 292.116 31.5742 292.028C29.9862 290.765 28.4321 289.417 26.9545 288.023C26.711 287.793 26.6997 287.413 26.929 287.168C27.1583 286.924 27.5376 286.913 27.781 287.143C29.2332 288.511 30.7618 289.837 32.3243 291.08C32.5848 291.287 32.6272 291.668 32.4206 291.929C32.3017 292.079 32.1262 292.159 31.9478 292.159ZM131.162 282.468C131.023 282.468 130.884 282.419 130.771 282.323C130.516 282.107 130.488 281.727 130.703 281.471C131.994 279.947 133.236 278.352 134.397 276.725C134.59 276.453 134.966 276.39 135.238 276.586C135.51 276.779 135.572 277.157 135.377 277.429C134.196 279.084 132.934 280.708 131.62 282.255C131.501 282.397 131.331 282.468 131.162 282.468ZM21.5506 282.013C21.378 282.013 21.2081 281.94 21.0892 281.798C19.7843 280.239 18.5331 278.607 17.3668 276.944C17.1743 276.671 17.2395 276.294 17.514 276.101C17.7858 275.907 18.1623 275.973 18.3548 276.248C19.5012 277.883 20.7326 279.487 22.0149 281.02C22.23 281.275 22.196 281.656 21.9413 281.872C21.828 281.965 21.6922 282.013 21.5535 282.013H21.5506ZM139.402 270.491C139.303 270.491 139.204 270.466 139.113 270.417C138.821 270.256 138.717 269.889 138.875 269.597C139.838 267.846 140.735 266.032 141.547 264.204C141.683 263.9 142.04 263.761 142.343 263.897C142.646 264.033 142.784 264.391 142.649 264.695C141.825 266.551 140.911 268.396 139.931 270.179C139.821 270.378 139.614 270.491 139.402 270.491ZM13.4038 269.972C13.1887 269.972 12.9821 269.855 12.8717 269.654C11.9092 267.866 11.0147 266.012 10.208 264.144C10.0749 263.837 10.2164 263.483 10.5222 263.349C10.8279 263.216 11.1817 263.358 11.3148 263.664C12.1074 265.498 12.9877 267.32 13.9332 269.08C14.0917 269.373 13.9813 269.742 13.6897 269.898C13.5992 269.946 13.5001 269.969 13.4038 269.969V269.972ZM145.083 257.098C145.024 257.098 144.964 257.09 144.905 257.07C144.588 256.971 144.409 256.633 144.508 256.315C145.1 254.405 145.615 252.446 146.043 250.493C146.113 250.166 146.436 249.962 146.759 250.033C147.084 250.104 147.288 250.428 147.217 250.751C146.784 252.735 146.258 254.728 145.658 256.67C145.578 256.928 145.341 257.096 145.083 257.096V257.098ZM7.85846 256.528C7.59804 256.528 7.36026 256.358 7.281 256.096C6.7007 254.155 6.19683 252.159 5.77789 250.164C5.70995 249.837 5.91659 249.516 6.24495 249.448C6.57049 249.38 6.89036 249.59 6.95829 249.917C7.36875 251.878 7.86695 253.842 8.43593 255.753C8.53217 256.074 8.35101 256.409 8.03114 256.505C7.97452 256.522 7.91508 256.531 7.85846 256.531V256.528ZM147.951 242.831C147.931 242.831 147.911 242.831 147.891 242.828C147.56 242.797 147.316 242.502 147.35 242.17C147.543 240.18 147.653 238.159 147.676 236.158C147.679 235.825 147.953 235.553 148.285 235.561C148.619 235.564 148.885 235.84 148.879 236.172C148.856 238.207 148.743 240.262 148.548 242.286C148.517 242.599 148.256 242.831 147.948 242.831H147.951ZM5.10984 242.238C4.80129 242.238 4.53803 242.002 4.50973 241.687C4.32573 239.66 4.22665 237.602 4.21533 235.57C4.21533 235.238 4.48142 234.965 4.81544 234.962H4.81827C5.14947 234.962 5.41839 235.229 5.42122 235.564C5.43254 237.563 5.52878 239.584 5.70995 241.579C5.74109 241.912 5.49482 242.204 5.16362 242.235C5.14381 242.235 5.12682 242.235 5.10984 242.235V242.238ZM147.877 228.277C147.574 228.277 147.311 228.047 147.28 227.738C147.067 225.754 146.77 223.75 146.394 221.783L146.38 221.706C146.317 221.379 146.53 221.062 146.855 220.999C147.183 220.937 147.498 221.15 147.56 221.476L147.574 221.555C147.959 223.56 148.262 225.595 148.477 227.613C148.511 227.945 148.273 228.243 147.942 228.277C147.919 228.277 147.9 228.28 147.877 228.28V228.277ZM5.27685 227.681C5.2542 227.681 5.23156 227.681 5.20891 227.678C4.87772 227.642 4.63994 227.341 4.67957 227.011C4.90886 224.99 5.22873 222.955 5.62786 220.962C5.69297 220.636 6.01001 220.423 6.33837 220.488C6.6639 220.553 6.8762 220.871 6.8111 221.201C6.41763 223.162 6.10342 225.163 5.87979 227.148C5.84582 227.457 5.5854 227.684 5.28251 227.684L5.27685 227.681ZM144.879 213.962C144.624 213.962 144.387 213.797 144.305 213.542C143.699 211.634 143.008 209.732 142.247 207.887C142.119 207.578 142.266 207.226 142.572 207.098C142.881 206.97 143.232 207.118 143.359 207.425C144.135 209.301 144.837 211.234 145.454 213.176C145.556 213.494 145.38 213.834 145.063 213.934C145.004 213.953 144.942 213.962 144.879 213.962ZM8.37931 213.465C8.31704 213.465 8.25476 213.457 8.19249 213.434C7.87545 213.329 7.7056 212.988 7.80751 212.67C8.43876 210.74 9.16342 208.81 9.95602 206.939C10.0862 206.633 10.4401 206.488 10.7458 206.618C11.0515 206.749 11.1959 207.104 11.0657 207.41C10.2844 209.253 9.57388 211.149 8.95395 213.045C8.87186 213.301 8.63408 213.46 8.38214 213.46L8.37931 213.465ZM139.102 200.617C138.892 200.617 138.686 200.507 138.575 200.308C137.599 198.565 136.537 196.842 135.416 195.19C135.229 194.915 135.3 194.537 135.575 194.35C135.849 194.162 136.226 194.233 136.413 194.509C137.551 196.192 138.632 197.943 139.625 199.715C139.79 200.004 139.685 200.373 139.396 200.538C139.303 200.589 139.201 200.615 139.102 200.615V200.617ZM14.2757 200.169C14.1738 200.169 14.0719 200.143 13.9785 200.089C13.6897 199.925 13.5907 199.556 13.7548 199.266C14.7597 197.501 15.8552 195.758 17.0045 194.083C17.1942 193.807 17.5678 193.739 17.8424 193.929C18.117 194.12 18.1849 194.494 17.9953 194.77C16.863 196.416 15.7873 198.131 14.7994 199.868C14.689 200.064 14.4852 200.172 14.2757 200.172V200.169ZM130.751 188.723C130.584 188.723 130.414 188.652 130.295 188.516C128.988 187.009 127.601 185.536 126.171 184.142C125.933 183.909 125.928 183.526 126.16 183.287C126.392 183.049 126.774 183.043 127.012 183.276C128.467 184.692 129.876 186.191 131.207 187.724C131.425 187.977 131.399 188.357 131.147 188.576C131.034 188.675 130.893 188.723 130.754 188.723H130.751ZM22.7112 188.326C22.5697 188.326 22.4282 188.278 22.3149 188.176C22.0658 187.954 22.0403 187.574 22.2611 187.324C23.6001 185.797 25.0211 184.306 26.4817 182.898C26.7223 182.668 27.1017 182.674 27.3338 182.915C27.5631 183.157 27.5574 183.537 27.3168 183.77C25.8788 185.155 24.4833 186.62 23.167 188.122C23.0481 188.258 22.8811 188.326 22.7141 188.326H22.7112ZM120.178 178.757C120.051 178.757 119.921 178.717 119.813 178.632C118.231 177.417 116.575 176.253 114.896 175.174C114.616 174.996 114.534 174.621 114.715 174.34C114.893 174.059 115.267 173.976 115.547 174.158C117.254 175.254 118.936 176.438 120.546 177.672C120.81 177.874 120.861 178.254 120.66 178.518C120.541 178.674 120.362 178.754 120.181 178.754L120.178 178.757ZM33.3377 178.422C33.1566 178.422 32.9754 178.34 32.8565 178.183C32.6555 177.917 32.7093 177.539 32.9726 177.337C34.5917 176.111 36.2788 174.939 37.9943 173.857C38.2745 173.678 38.6482 173.764 38.8265 174.047C39.0048 174.328 38.9199 174.703 38.6368 174.882C36.9497 175.947 35.2881 177.099 33.7001 178.305C33.5925 178.388 33.4651 178.428 33.3377 178.428V178.422ZM107.828 171.115C107.74 171.115 107.65 171.095 107.565 171.055C105.77 170.181 103.919 169.375 102.059 168.657C101.748 168.538 101.595 168.188 101.714 167.876C101.833 167.564 102.181 167.411 102.492 167.53C104.383 168.259 106.268 169.083 108.091 169.971C108.391 170.116 108.516 170.479 108.369 170.777C108.264 170.993 108.049 171.118 107.825 171.118L107.828 171.115ZM45.7448 170.877C45.5183 170.877 45.3032 170.749 45.2013 170.53C45.0597 170.229 45.1871 169.869 45.4872 169.724C47.3186 168.853 49.2096 168.049 51.109 167.337C51.4203 167.22 51.7685 167.379 51.8846 167.692C52.0006 168.004 51.8421 168.353 51.5307 168.469C49.6625 169.171 47.8027 169.96 46.0023 170.817C45.9203 170.857 45.8297 170.877 45.7448 170.877ZM94.2009 166.116C94.1528 166.116 94.1019 166.111 94.0509 166.096C92.1175 165.602 90.1417 165.188 88.1743 164.862C87.846 164.808 87.6252 164.495 87.679 164.166C87.7327 163.837 88.0441 163.615 88.3725 163.669C90.371 164.001 92.3836 164.424 94.3481 164.927C94.6708 165.009 94.8661 165.338 94.7841 165.662C94.7161 165.935 94.4699 166.116 94.2009 166.116ZM59.4143 166.005C59.1425 166.005 58.8963 165.821 58.8283 165.546C58.7491 165.222 58.9472 164.896 59.2699 164.816C60.4673 164.521 61.6902 164.254 62.9074 164.018C63.683 163.868 64.4728 163.729 65.254 163.607C65.5824 163.556 65.891 163.78 65.9447 164.109C65.9957 164.439 65.7721 164.748 65.4437 164.802C64.6766 164.924 63.8981 165.06 63.1338 165.208C61.9364 165.438 60.7334 165.702 59.5558 165.991C59.5077 166.003 59.4596 166.008 59.4114 166.008L59.4143 166.005ZM79.8407 163.982C79.8407 163.982 79.8237 163.982 79.8124 163.982C78.7566 163.933 77.6865 163.911 76.6307 163.911C75.6937 163.911 74.7454 163.93 73.8085 163.967C73.4801 163.982 73.197 163.72 73.1829 163.388C73.1687 163.056 73.4292 162.775 73.7603 162.761C74.7143 162.724 75.6796 162.704 76.6307 162.704C77.7035 162.704 78.7934 162.73 79.8662 162.778C80.1974 162.792 80.455 163.076 80.4408 163.408C80.4267 163.732 80.1606 163.984 79.8407 163.984V163.982Z" fill="#DEDEDE"/>
<path d="M297.044 252.781C296.696 252.804 296.351 252.823 296.005 252.843C295.674 252.863 295.388 252.608 295.371 252.276C295.351 251.943 295.603 251.66 295.935 251.64C295.935 251.64 295.937 251.64 295.94 251.64C297.91 251.529 299.903 251.367 301.868 251.163C302.199 251.126 302.496 251.37 302.53 251.702C302.564 252.034 302.323 252.332 301.992 252.366C300.353 252.537 298.689 252.679 297.047 252.784L297.044 252.781ZM287.649 253.039C287.635 253.039 287.618 253.039 287.604 253.039C285.611 253.019 283.593 252.951 281.605 252.835C281.274 252.815 281.02 252.531 281.039 252.196C281.059 251.864 281.345 251.608 281.676 251.628C283.646 251.742 285.645 251.81 287.618 251.83C287.949 251.833 288.218 252.105 288.215 252.44C288.212 252.758 287.963 253.016 287.652 253.036L287.649 253.039ZM310.255 251.225C309.952 251.245 309.675 251.032 309.624 250.723C309.567 250.394 309.788 250.081 310.116 250.025C312.067 249.692 314.028 249.306 315.953 248.883C316.279 248.812 316.599 249.017 316.672 249.343C316.743 249.67 316.539 249.99 316.214 250.061C314.272 250.49 312.29 250.876 310.323 251.214C310.303 251.217 310.281 251.22 310.261 251.222L310.255 251.225ZM273.351 252.071C273.314 252.071 273.275 252.071 273.238 252.068C271.259 251.819 269.261 251.52 267.302 251.177C266.973 251.12 266.756 250.808 266.812 250.479C266.869 250.149 267.183 249.931 267.509 249.988C269.45 250.328 271.429 250.623 273.388 250.87C273.719 250.913 273.951 251.214 273.912 251.546C273.875 251.838 273.637 252.054 273.354 252.074L273.351 252.071ZM324.225 248.009C323.95 248.026 323.687 247.853 323.608 247.575C323.514 247.254 323.698 246.919 324.018 246.825C325.915 246.275 327.82 245.667 329.685 245.026C329.999 244.918 330.342 245.085 330.449 245.4C330.557 245.715 330.39 246.059 330.076 246.167C328.191 246.814 326.266 247.427 324.352 247.984C324.31 247.995 324.264 248.003 324.222 248.006L324.225 248.009ZM259.246 249.462C259.186 249.465 259.124 249.462 259.064 249.445C257.128 248.971 255.175 248.441 253.259 247.873C252.939 247.779 252.758 247.441 252.851 247.123C252.944 246.803 253.281 246.621 253.598 246.715C255.495 247.277 257.431 247.802 259.35 248.273C259.673 248.353 259.871 248.679 259.792 249.003C259.727 249.267 259.5 249.445 259.246 249.462ZM337.739 243.217C337.489 243.234 337.246 243.092 337.144 242.848C337.014 242.542 337.158 242.187 337.467 242.056C339.287 241.29 341.113 240.47 342.893 239.618C343.193 239.473 343.553 239.601 343.697 239.902C343.842 240.203 343.714 240.563 343.414 240.708C341.617 241.568 339.774 242.397 337.937 243.172C337.874 243.198 337.806 243.215 337.741 243.217H337.739ZM245.525 245.244C245.443 245.25 245.358 245.239 245.276 245.207C243.408 244.512 241.528 243.762 239.691 242.979C239.385 242.848 239.244 242.494 239.374 242.187C239.504 241.88 239.858 241.736 240.164 241.869C241.984 242.647 243.844 243.388 245.695 244.077C246.006 244.194 246.165 244.54 246.052 244.855C245.967 245.085 245.754 245.233 245.525 245.247V245.244ZM350.604 236.907C350.381 236.921 350.157 236.81 350.041 236.6C349.877 236.311 349.981 235.942 350.27 235.777C351.986 234.809 353.701 233.787 355.371 232.737C355.654 232.561 356.025 232.646 356.2 232.927C356.376 233.211 356.291 233.583 356.011 233.759C354.327 234.818 352.594 235.851 350.862 236.83C350.78 236.876 350.692 236.901 350.607 236.907H350.604ZM232.379 239.482C232.275 239.487 232.167 239.467 232.068 239.416C230.29 238.511 228.51 237.551 226.775 236.566C226.486 236.402 226.384 236.033 226.548 235.743C226.712 235.454 227.08 235.351 227.369 235.516C229.084 236.495 230.848 237.444 232.611 238.341C232.909 238.491 233.028 238.854 232.878 239.152C232.778 239.351 232.583 239.467 232.379 239.482ZM362.655 229.163C362.454 229.177 362.253 229.089 362.128 228.913C361.933 228.644 361.992 228.266 362.261 228.07C363.858 226.909 365.446 225.697 366.985 224.462C367.246 224.255 367.625 224.295 367.832 224.556C368.039 224.817 367.999 225.197 367.738 225.405C366.184 226.651 364.579 227.877 362.969 229.047C362.872 229.115 362.765 229.155 362.655 229.16V229.163ZM219.978 232.257C219.851 232.266 219.72 232.235 219.607 232.158C217.943 231.057 216.284 229.901 214.673 228.723C214.404 228.527 214.345 228.15 214.543 227.88C214.738 227.61 215.115 227.551 215.384 227.749C216.977 228.916 218.622 230.06 220.27 231.15C220.547 231.335 220.623 231.709 220.439 231.988C220.332 232.152 220.156 232.246 219.975 232.257H219.978ZM373.751 220.085C373.575 220.096 373.394 220.031 373.267 219.889C373.043 219.642 373.06 219.262 373.304 219.035C374.759 217.701 376.199 216.312 377.592 214.907C377.827 214.672 378.209 214.669 378.444 214.907C378.679 215.143 378.682 215.526 378.444 215.762C377.04 217.178 375.585 218.581 374.116 219.929C374.011 220.025 373.881 220.077 373.748 220.085H373.751ZM208.477 223.673C208.327 223.682 208.174 223.636 208.052 223.534C206.524 222.254 205.006 220.917 203.54 219.566C203.297 219.338 203.28 218.958 203.506 218.711C203.732 218.467 204.112 218.45 204.358 218.677C205.81 220.017 207.313 221.34 208.828 222.609C209.083 222.822 209.117 223.205 208.904 223.46C208.794 223.594 208.641 223.665 208.48 223.676L208.477 223.673ZM383.752 209.798C383.599 209.806 383.443 209.758 383.319 209.65C383.067 209.432 383.041 209.048 383.259 208.798C384.556 207.305 385.832 205.761 387.055 204.208C387.262 203.947 387.641 203.902 387.902 204.109C388.162 204.316 388.207 204.697 388.001 204.958C386.767 206.525 385.476 208.083 384.168 209.59C384.058 209.718 383.908 209.786 383.752 209.798ZM198.026 213.843C197.853 213.854 197.678 213.792 197.55 213.655C196.177 212.208 194.821 210.709 193.519 209.202C193.301 208.949 193.33 208.569 193.582 208.35C193.833 208.131 194.213 208.16 194.431 208.412C195.722 209.908 197.063 211.393 198.422 212.827C198.651 213.068 198.643 213.451 198.402 213.681C198.295 213.783 198.162 213.837 198.026 213.846V213.843ZM392.533 198.437C392.402 198.446 392.269 198.412 392.153 198.332C391.879 198.142 391.811 197.767 391.998 197.492C393.116 195.86 394.211 194.179 395.25 192.499C395.426 192.215 395.797 192.127 396.08 192.303C396.363 192.479 396.45 192.851 396.275 193.135C395.225 194.832 394.121 196.53 392.991 198.176C392.884 198.335 392.711 198.426 392.533 198.437ZM188.761 202.891C188.566 202.903 188.367 202.82 188.24 202.653C187.043 201.06 185.865 199.417 184.744 197.77C184.557 197.495 184.628 197.12 184.903 196.93C185.177 196.743 185.554 196.814 185.74 197.089C186.853 198.721 188.016 200.348 189.202 201.926C189.403 202.193 189.35 202.57 189.084 202.772C188.987 202.846 188.874 202.886 188.761 202.894V202.891ZM399.975 186.146C399.867 186.152 399.757 186.132 399.655 186.075C399.36 185.919 399.25 185.553 399.406 185.257C400.334 183.506 401.232 181.712 402.075 179.924C402.217 179.623 402.576 179.492 402.876 179.634C403.176 179.776 403.306 180.136 403.165 180.437C402.316 182.243 401.407 184.057 400.47 185.822C400.368 186.015 400.178 186.129 399.977 186.14L399.975 186.146ZM180.807 190.955C180.586 190.969 180.368 190.861 180.249 190.659C179.241 188.942 178.259 187.176 177.336 185.411C177.18 185.115 177.294 184.749 177.588 184.596C177.882 184.44 178.248 184.553 178.4 184.849C179.318 186.597 180.289 188.346 181.288 190.046C181.458 190.333 181.361 190.705 181.075 190.872C180.991 190.921 180.9 190.949 180.809 190.955H180.807ZM405.976 173.079C405.891 173.085 405.803 173.071 405.718 173.04C405.41 172.918 405.257 172.569 405.378 172.256C406.103 170.411 406.791 168.523 407.422 166.647C407.53 166.332 407.87 166.162 408.187 166.27C408.501 166.377 408.671 166.721 408.563 167.036C407.923 168.929 407.23 170.834 406.499 172.699C406.412 172.923 406.202 173.065 405.979 173.082L405.976 173.079ZM174.262 178.181C174.018 178.198 173.778 178.061 173.673 177.823C172.866 175.998 172.094 174.124 171.375 172.262C171.256 171.95 171.409 171.601 171.72 171.481C172.031 171.359 172.379 171.515 172.498 171.828C173.212 173.673 173.976 175.526 174.774 177.335C174.91 177.638 174.774 177.996 174.469 178.132C174.401 178.161 174.333 178.178 174.265 178.183L174.262 178.181ZM410.451 159.406C410.389 159.408 410.324 159.406 410.259 159.386C409.936 159.301 409.746 158.968 409.831 158.648C410.338 156.729 410.808 154.776 411.221 152.837C411.292 152.51 411.612 152.303 411.937 152.374C412.263 152.445 412.469 152.766 412.399 153.092C411.98 155.048 411.507 157.021 410.995 158.96C410.927 159.218 410.703 159.391 410.451 159.408V159.406ZM169.22 164.725C168.949 164.742 168.691 164.575 168.606 164.302C168.015 162.395 167.46 160.447 166.959 158.514C166.874 158.191 167.069 157.861 167.389 157.776C167.712 157.691 168.04 157.887 168.125 158.208C168.623 160.124 169.172 162.051 169.758 163.942C169.857 164.26 169.679 164.598 169.362 164.697C169.314 164.711 169.269 164.72 169.22 164.722V164.725ZM413.33 145.312C413.288 145.312 413.245 145.312 413.203 145.306C412.874 145.258 412.645 144.951 412.693 144.622C412.976 142.666 413.217 140.673 413.406 138.703C413.438 138.371 413.735 138.127 414.063 138.161C414.394 138.192 414.638 138.487 414.604 138.82C414.411 140.809 414.168 142.819 413.882 144.795C413.839 145.082 413.605 145.292 413.324 145.312H413.33ZM165.744 150.782C165.444 150.802 165.172 150.594 165.113 150.291C164.742 148.332 164.411 146.334 164.128 144.352C164.08 144.023 164.309 143.716 164.64 143.668C164.972 143.623 165.274 143.85 165.323 144.182C165.6 146.143 165.928 148.125 166.296 150.066C166.359 150.393 166.143 150.711 165.818 150.773C165.792 150.779 165.767 150.782 165.744 150.782ZM414.576 130.993C414.556 130.993 414.539 130.993 414.519 130.993C414.188 130.985 413.924 130.704 413.936 130.372C413.995 128.393 414.007 126.389 413.97 124.41C413.964 124.075 414.23 123.803 414.561 123.794C414.895 123.789 415.17 124.053 415.176 124.388C415.212 126.386 415.201 128.41 415.142 130.409C415.133 130.724 414.887 130.973 414.578 130.993H414.576ZM163.859 136.532C163.531 136.554 163.245 136.304 163.219 135.975C163.182 135.504 163.151 135.033 163.12 134.564C163.021 133.037 162.95 131.49 162.908 129.963C162.899 129.631 163.157 129.353 163.494 129.341C163.825 129.333 164.102 129.594 164.114 129.929C164.156 131.442 164.227 132.975 164.326 134.485C164.357 134.95 164.388 135.416 164.425 135.882C164.451 136.214 164.202 136.503 163.87 136.529H163.865L163.859 136.532ZM414.179 116.627C413.854 116.647 413.568 116.403 413.539 116.076C413.372 114.109 413.16 112.113 412.9 110.146L412.874 109.956C412.829 109.627 413.061 109.323 413.392 109.277C413.723 109.232 414.026 109.465 414.069 109.797L414.094 109.99C414.355 111.974 414.573 113.987 414.74 115.974C414.768 116.306 414.522 116.598 414.19 116.627C414.188 116.627 414.182 116.627 414.179 116.627ZM163.587 122.162C163.567 122.162 163.545 122.162 163.525 122.162C163.194 122.148 162.933 121.87 162.945 121.535C163.021 119.536 163.146 117.515 163.318 115.525C163.347 115.193 163.638 114.946 163.969 114.975C164.301 115.003 164.547 115.295 164.519 115.628C164.349 117.598 164.224 119.602 164.151 121.577C164.139 121.89 163.893 122.137 163.587 122.157V122.162ZM412.133 102.204C411.835 102.223 411.564 102.019 411.504 101.721C411.116 99.7793 410.675 97.8235 410.196 95.9045C410.114 95.5809 410.312 95.2516 410.635 95.1721C410.958 95.0898 411.286 95.2885 411.365 95.6121C411.849 97.5481 412.294 99.5238 412.687 101.485C412.753 101.812 412.543 102.13 412.215 102.198C412.189 102.204 412.161 102.206 412.135 102.209L412.133 102.204ZM164.955 107.855C164.912 107.855 164.867 107.855 164.824 107.85C164.496 107.799 164.269 107.489 164.32 107.16C164.626 105.181 164.983 103.183 165.382 101.219C165.447 100.892 165.767 100.682 166.092 100.747C166.418 100.813 166.627 101.133 166.562 101.46C166.166 103.404 165.812 105.383 165.512 107.344C165.467 107.628 165.232 107.838 164.957 107.855H164.955ZM408.515 88.2969C408.246 88.3139 407.988 88.1493 407.903 87.8796C407.298 85.9947 406.638 84.1013 405.942 82.2505C405.826 81.9383 405.981 81.5891 406.293 81.4727C406.604 81.3563 406.952 81.5125 407.068 81.8247C407.77 83.6954 408.436 85.6058 409.05 87.5077C409.152 87.8257 408.979 88.1663 408.662 88.2685C408.614 88.2855 408.563 88.294 408.515 88.2969ZM167.958 93.7755C167.893 93.7784 167.825 93.7755 167.76 93.7556C167.44 93.6676 167.25 93.3355 167.338 93.0119C167.867 91.0816 168.45 89.14 169.07 87.2381C169.175 86.9201 169.515 86.747 169.829 86.852C170.146 86.957 170.319 87.2977 170.214 87.6128C169.6 89.4976 169.022 91.4223 168.499 93.3327C168.428 93.5882 168.207 93.7585 167.958 93.7755ZM403.338 74.8955C403.094 74.9125 402.856 74.7791 402.752 74.5435C401.934 72.741 401.062 70.9356 400.159 69.1784C400.006 68.8832 400.122 68.517 400.419 68.3637C400.716 68.2104 401.079 68.3268 401.232 68.6249C402.143 70.4019 403.023 72.2243 403.85 74.0439C403.989 74.3476 403.853 74.7053 403.553 74.8444C403.485 74.8756 403.414 74.8927 403.343 74.8983L403.338 74.8955ZM172.552 80.1414C172.464 80.1471 172.374 80.1329 172.289 80.0988C171.98 79.9739 171.83 79.6219 171.955 79.3125C172.699 77.4588 173.5 75.5967 174.336 73.7771C174.474 73.4733 174.831 73.3399 175.134 73.4818C175.437 73.6209 175.57 73.9786 175.428 74.2824C174.602 76.0821 173.809 77.9272 173.07 79.7638C172.98 79.9852 172.773 80.1272 172.549 80.1414H172.552ZM396.663 62.1868C396.445 62.201 396.227 62.0959 396.108 61.8944C395.092 60.2025 394.022 58.5135 392.923 56.8699C392.739 56.5918 392.813 56.2171 393.088 56.0325C393.365 55.848 393.739 55.9218 393.923 56.1972C395.029 57.855 396.111 59.561 397.135 61.2699C397.308 61.5566 397.215 61.9256 396.932 62.0988C396.847 62.1499 396.753 62.1783 396.66 62.1839L396.663 62.1868ZM178.667 67.1289C178.556 67.1374 178.446 67.1119 178.341 67.0579C178.049 66.899 177.939 66.5328 178.1 66.2376C179.051 64.4804 180.056 62.7233 181.092 61.0144C181.265 60.7305 181.636 60.6369 181.919 60.81C182.205 60.9832 182.295 61.355 182.123 61.6389C181.098 63.3336 180.102 65.0737 179.162 66.8138C179.06 67.004 178.87 67.1147 178.672 67.1289H178.667ZM388.587 50.3325C388.394 50.3438 388.196 50.2644 388.072 50.0997C386.868 48.5328 385.609 46.9772 384.335 45.4698C384.12 45.2144 384.151 44.834 384.403 44.6182C384.658 44.4025 385.037 44.4337 385.252 44.6864C386.54 46.2079 387.808 47.7805 389.025 49.3617C389.229 49.6257 389.181 50.006 388.915 50.2076C388.816 50.2842 388.703 50.324 388.587 50.3325ZM186.213 54.9027C186.08 54.9113 185.947 54.8772 185.828 54.7949C185.556 54.6047 185.489 54.2271 185.681 53.9546C186.825 52.3196 188.022 50.6873 189.242 49.1062C189.446 48.8422 189.825 48.7939 190.088 48.9983C190.352 49.2027 190.4 49.5831 190.196 49.8471C188.987 51.4112 187.801 53.0292 186.669 54.6501C186.559 54.8062 186.392 54.8942 186.213 54.9056V54.9027ZM379.209 39.4774C379.039 39.4888 378.866 39.4263 378.736 39.2957C377.363 37.8764 375.936 36.4713 374.495 35.12C374.252 34.893 374.241 34.5097 374.467 34.2656C374.694 34.0215 375.076 34.0101 375.319 34.2372C376.771 35.6026 378.212 37.022 379.599 38.4526C379.831 38.6911 379.826 39.0743 379.588 39.3071C379.48 39.4121 379.344 39.4689 379.209 39.4774ZM195.09 43.619C194.935 43.6304 194.776 43.5793 194.652 43.4686C194.402 43.2472 194.38 42.8668 194.601 42.617C195.92 41.121 197.295 39.6364 198.685 38.2057C198.917 37.9672 199.3 37.9616 199.537 38.1943C199.775 38.4271 199.781 38.8103 199.549 39.0488C198.173 40.4653 196.811 41.9357 195.504 43.4175C195.393 43.5424 195.243 43.6105 195.09 43.619ZM368.656 29.755C368.508 29.7635 368.358 29.7209 368.234 29.6187C366.708 28.364 365.131 27.1292 363.546 25.9483C363.28 25.7496 363.223 25.372 363.422 25.1024C363.62 24.8355 363.996 24.7788 364.265 24.9775C365.865 26.1697 367.455 27.4159 368.998 28.6819C369.256 28.892 369.293 29.2752 369.083 29.5307C368.973 29.6641 368.817 29.7408 368.656 29.7493V29.755ZM205.182 33.4197C205.003 33.431 204.822 33.3629 204.695 33.221C204.471 32.974 204.494 32.5908 204.74 32.3665C206.221 31.0324 207.752 29.7152 209.295 28.452C209.552 28.2419 209.932 28.2788 210.141 28.5372C210.351 28.7955 210.314 29.1759 210.056 29.3859C208.531 30.6349 207.013 31.9407 205.547 33.2636C205.442 33.3572 205.315 33.4083 205.185 33.4168L205.182 33.4197ZM357.07 21.2872C356.945 21.2957 356.818 21.2645 356.704 21.1907C355.046 20.1177 353.339 19.0702 351.632 18.0767C351.343 17.9092 351.247 17.5402 351.414 17.2506C351.581 16.9611 351.949 16.8645 352.237 17.032C353.961 18.0341 355.685 19.0929 357.361 20.1773C357.641 20.359 357.721 20.7308 357.539 21.0118C357.432 21.1793 357.256 21.2758 357.072 21.2872H357.07ZM216.36 24.4381C216.159 24.4523 215.956 24.3615 215.831 24.1855C215.638 23.913 215.701 23.5354 215.973 23.3424C217.595 22.1871 219.265 21.0544 220.938 19.9757C221.218 19.7941 221.591 19.8764 221.77 20.1574C221.948 20.4384 221.869 20.8131 221.589 20.992C219.93 22.0593 218.277 23.1806 216.672 24.3246C216.578 24.3927 216.471 24.4268 216.363 24.4353L216.36 24.4381ZM344.597 14.1905C344.495 14.1962 344.391 14.1792 344.292 14.1281C342.522 13.2509 340.705 12.4022 338.893 11.6102C338.588 11.4767 338.449 11.1219 338.582 10.8153C338.715 10.5088 339.069 10.3697 339.375 10.5031C341.203 11.3036 343.035 12.158 344.824 13.0437C345.121 13.1913 345.246 13.5547 345.096 13.8527C344.997 14.0543 344.801 14.1735 344.595 14.1877L344.597 14.1905ZM228.479 16.8021C228.252 16.8163 228.029 16.7027 227.912 16.4898C227.751 16.1975 227.859 15.8313 228.15 15.6695C229.897 14.7043 231.689 13.7704 233.478 12.8904C233.778 12.7428 234.137 12.8677 234.284 13.1658C234.432 13.4667 234.307 13.8272 234.01 13.9748C232.238 14.8463 230.463 15.7717 228.733 16.7255C228.654 16.7709 228.566 16.7936 228.481 16.7993L228.479 16.8021ZM331.395 8.56143C331.316 8.56711 331.234 8.55576 331.151 8.52737C329.292 7.85744 327.389 7.22442 325.501 6.64533C325.184 6.54882 325.003 6.21101 325.102 5.89024C325.198 5.57231 325.535 5.39064 325.855 5.48999C327.763 6.07476 329.682 6.71346 331.562 7.3919C331.876 7.50545 332.037 7.85177 331.924 8.16402C331.839 8.39679 331.627 8.54724 331.395 8.56143ZM241.409 10.5996C241.157 10.6166 240.914 10.4719 240.812 10.2249C240.685 9.91548 240.835 9.56348 241.14 9.43574C242.983 8.68066 244.871 7.9568 246.748 7.28971C247.062 7.179 247.405 7.34364 247.518 7.6559C247.628 7.97099 247.464 8.31447 247.153 8.42802C245.293 9.08943 243.422 9.80477 241.599 10.5542C241.537 10.5797 241.474 10.5939 241.409 10.5968V10.5996ZM317.632 4.48226C317.575 4.4851 317.516 4.48226 317.456 4.46807C315.529 4.01672 313.567 3.60511 311.622 3.24744C311.294 3.18783 311.079 2.87274 311.138 2.54345C311.198 2.21416 311.512 1.99842 311.84 2.05804C313.805 2.41855 315.786 2.83299 317.731 3.29002C318.054 3.36666 318.258 3.69027 318.181 4.01672C318.119 4.28072 317.892 4.46523 317.635 4.48226H317.632ZM254.96 5.92715C254.683 5.94418 254.419 5.76818 254.343 5.48715C254.252 5.16638 254.439 4.83142 254.759 4.74342C256.675 4.20407 258.631 3.70163 260.576 3.25312C260.902 3.17931 261.224 3.38086 261.298 3.70731C261.372 4.03375 261.171 4.35736 260.845 4.43117C258.92 4.874 256.981 5.37077 255.085 5.90728C255.042 5.91863 255.002 5.92715 254.96 5.92998V5.92715ZM303.498 2.0183C303.461 2.0183 303.427 2.0183 303.391 2.0183C301.432 1.7912 299.439 1.61237 297.469 1.47895C297.138 1.45624 296.886 1.16953 296.908 0.834569C296.931 0.499606 297.217 0.249803 297.551 0.272512C299.541 0.40593 301.551 0.587605 303.529 0.817537C303.861 0.85444 304.098 1.15534 304.059 1.48746C304.025 1.78269 303.784 2.0041 303.501 2.02113L303.498 2.0183ZM268.958 2.83583C268.652 2.8557 268.375 2.63996 268.324 2.33055C268.27 2.00126 268.494 1.69185 268.822 1.63791C270.048 1.43921 271.296 1.25469 272.53 1.09289C273.275 0.993535 274.028 0.902698 274.769 0.817537C275.098 0.780635 275.398 1.01908 275.437 1.34837C275.474 1.68049 275.236 1.97855 274.908 2.0183C274.172 2.10346 273.428 2.19429 272.692 2.29081C271.469 2.45261 270.232 2.63429 269.017 2.83016C268.997 2.83299 268.978 2.83583 268.961 2.83583H268.958ZM289.192 1.19792C289.192 1.19792 289.166 1.19792 289.152 1.19792C287.182 1.19792 285.181 1.24618 283.208 1.33985C282.876 1.35688 282.593 1.09857 282.576 0.766441C282.559 0.437155 282.811 0.156127 283.14 0.136256C283.143 0.136256 283.145 0.136256 283.151 0.136256C285.144 0.0482574 287.162 0 289.152 0C289.486 0 289.755 0.269674 289.755 0.604637C289.755 0.925407 289.506 1.18656 289.192 1.20644V1.19792Z" fill="#DEDEDE"/>
<path d="M308.981 75.1143V282.945H308.438L292.747 267.633L277.056 282.945H275.42L259.73 267.633L244.036 282.945H242.425L226.76 267.661L211.098 282.945H209.493L193.814 267.644L178.131 282.945H176.478L160.796 267.644L145.114 282.945H143.481L127.83 267.673L112.179 282.945H111.143V17.353H251.382L308.981 75.1143Z" fill="#F2F2F2"/>
<path d="M308.981 75.1143H251.382V17.353L308.981 75.1143Z" fill="#DEDEDE"/>
<path d="M164.383 183.234V175.461H143.464C140.826 175.461 138.844 174.862 137.525 173.665C136.206 172.467 135.546 170.837 135.546 168.776C135.546 168.248 135.643 167.712 135.838 167.167C136.033 166.625 136.325 166.054 136.713 165.452C137.1 164.853 137.505 164.277 137.921 163.718C138.337 163.161 138.853 162.477 139.464 161.671L161.549 132.044C162.993 130.094 164.182 128.68 165.113 127.803C166.045 126.926 167.163 126.486 168.468 126.486C172.691 126.486 174.803 128.91 174.803 133.756V166.1H176.595C178.735 166.1 180.45 166.392 181.741 166.977C183.032 167.561 183.68 168.845 183.68 170.82C183.68 172.435 183.151 173.613 182.097 174.352C181.042 175.09 179.459 175.459 177.348 175.459H174.806V183.231C174.806 185.377 174.333 186.969 173.39 188.014C172.445 189.059 171.182 189.581 169.597 189.581C168.012 189.581 166.783 189.044 165.827 187.971C164.867 186.898 164.389 185.317 164.389 183.228L164.383 183.234ZM146.464 166.102H164.383V141.823L146.464 166.102Z" fill="#004587"/>
<path d="M231.89 158.495C231.89 163.065 231.613 166.991 231.058 170.278C230.503 173.565 229.475 176.546 227.975 179.22C226.087 182.507 223.641 185.042 220.641 186.825C217.64 188.607 214.306 189.499 210.64 189.499C206.416 189.499 202.632 188.301 199.286 185.905C195.937 183.509 193.418 180.193 191.722 175.961C190.862 173.65 190.228 171.093 189.826 168.294C189.424 165.495 189.223 162.466 189.223 159.204C189.223 154.997 189.443 151.211 189.891 147.838C190.335 144.469 191.029 141.571 191.974 139.146C193.613 135.135 195.997 132.078 199.122 129.975C202.247 127.871 205.978 126.821 210.309 126.821C213.171 126.821 215.766 127.286 218.102 128.22C220.434 129.154 222.484 130.52 224.247 132.316C226.011 134.113 227.505 136.336 228.725 138.982C230.837 143.577 231.893 150.084 231.893 158.495H231.89ZM220.474 157.66C220.474 152.562 220.168 148.392 219.557 145.144C218.945 141.9 217.918 139.447 216.474 137.789C215.03 136.132 213.029 135.303 210.473 135.303C206.807 135.303 204.257 137.156 202.827 140.861C201.395 144.565 200.681 150.277 200.681 157.992C200.681 163.23 200.987 167.519 201.599 170.863C202.21 174.207 203.238 176.733 204.681 178.448C206.125 180.162 208.084 181.017 210.558 181.017C213.032 181.017 215.112 180.125 216.559 178.343C218.003 176.56 219.019 174.011 219.602 170.695C220.185 167.38 220.477 163.034 220.477 157.657L220.474 157.66Z" fill="#004587"/>
<path d="M265.807 183.234V175.461H244.888C242.25 175.461 240.268 174.862 238.949 173.665C237.63 172.467 236.971 170.837 236.971 168.776C236.971 168.248 237.067 167.712 237.262 167.167C237.458 166.625 237.749 166.054 238.137 165.452C238.525 164.853 238.93 164.277 239.346 163.718C239.762 163.161 240.277 162.477 240.888 161.671L262.974 132.044C264.417 130.094 265.606 128.68 266.538 127.803C267.469 126.926 268.587 126.486 269.892 126.486C274.115 126.486 276.227 128.91 276.227 133.756V166.1H278.019C280.159 166.1 281.874 166.392 283.165 166.977C284.456 167.561 285.104 168.845 285.104 170.82C285.104 172.435 284.575 173.613 283.522 174.352C282.466 175.09 280.884 175.459 278.772 175.459H276.23V183.231C276.23 185.377 275.757 186.969 274.812 188.014C273.866 189.059 272.604 189.581 271.019 189.581C269.433 189.581 268.205 189.044 267.248 187.971C266.288 186.898 265.81 185.317 265.81 183.228L265.807 183.234ZM247.889 166.102H265.807V141.823L247.889 166.102Z" fill="#004587"/>
<path d="M208.522 343.951C205.796 346.684 201.377 346.684 198.654 343.951L156.286 301.464L150.902 296.065C154.823 293.47 158.183 290.098 160.77 286.169L208.522 334.055C211.248 336.789 211.248 341.217 208.522 343.951Z" fill="#9C9C9C"/>
<path d="M162.916 288.318L173.956 299.392C171.369 303.324 168.009 306.693 164.091 309.288L158.435 303.613L153.051 298.214C156.972 295.619 160.332 292.247 162.919 288.318H162.916Z" fill="#5E5E5E"/>
<path d="M173.919 265.263C173.845 263.471 173.656 261.709 173.364 259.98C171.705 250.158 166.664 241.492 159.48 235.227C152.089 228.777 142.433 224.874 131.869 224.874C108.626 224.874 89.7817 243.771 89.7817 267.082C89.7817 268.695 89.8723 270.287 90.0478 271.854C90.5998 276.765 91.9897 281.42 94.0759 285.673C97.0708 291.784 101.495 297.064 106.913 301.07C107.794 301.723 108.702 302.339 109.634 302.923C116.088 306.957 123.708 309.288 131.869 309.288C140.972 309.288 149.399 306.389 156.284 301.464C160.094 298.739 163.431 295.392 166.152 291.571C168.883 287.731 170.989 283.413 172.32 278.766C173.381 275.056 173.95 271.139 173.95 267.088C173.95 266.478 173.936 265.87 173.911 265.268L173.919 265.263ZM131.872 301.779C124.299 301.779 117.299 299.341 111.601 295.205C106.073 291.191 101.773 285.576 99.3779 279.036C98.0135 275.309 97.2718 271.283 97.2718 267.082C97.2718 265.501 97.3765 263.946 97.5832 262.421C99.3043 249.553 108.06 238.923 119.841 234.54C123.589 233.146 127.643 232.385 131.874 232.385C133.406 232.385 134.912 232.484 136.389 232.678C143.404 233.592 149.759 236.615 154.803 241.094C161.965 247.45 166.477 256.738 166.477 267.082C166.477 267.61 166.466 268.135 166.44 268.658C166.327 271.204 165.939 273.679 165.308 276.055C164.34 279.697 162.794 283.101 160.779 286.167C158.192 290.098 154.832 293.471 150.911 296.062C149.949 296.698 148.955 297.286 147.927 297.825C145.736 298.978 143.407 299.9 140.97 300.564C138.071 301.353 135.025 301.776 131.877 301.776L131.872 301.779Z" fill="#B8B8B8"/>
<path d="M105.668 270.897C103.884 270.897 102.438 269.447 102.438 267.658C102.438 259.622 105.56 252.065 111.227 246.382C116.894 240.699 124.43 237.568 132.444 237.568C134.227 237.568 135.673 239.019 135.673 240.807C135.673 242.596 134.227 244.046 132.444 244.046C126.154 244.046 120.243 246.502 115.796 250.961C111.349 255.421 108.901 261.348 108.901 267.655C108.901 269.444 107.454 270.894 105.671 270.894L105.668 270.897Z" fill="white"/>
</g>
<defs>
<clipPath id="clip0_1498_111294">
<rect width="426" height="346" fill="white"/>
</clipPath>
</defs>
</svg>
