<svg width="500" height="501" viewBox="0 0 500 501" fill="none" xmlns="http://www.w3.org/2000/svg">
<rect width="500" height="500" fill="white"/>
<path fill-rule="evenodd" clip-rule="evenodd" d="M337.387 213.587L337.384 213.546C338.569 200.42 340.401 162.53 325.032 137.551C306.395 107.407 275.854 98.5845 250.017 99.0149C224.144 98.5845 193.603 107.407 174.966 137.551C159.615 162.422 161.446 200.366 162.649 213.439V213.54C158.335 212.105 153.633 212.39 149.524 214.335C140.116 218.8 136.022 233.72 144.999 247.366C151.802 257.735 163.279 259.584 172.031 257.587C172.357 258.429 172.677 259.276 172.995 260.117C173.264 260.828 173.531 261.535 173.799 262.231L174.912 265.011C180.568 279.436 188.895 292.667 199.456 304.013C204.007 308.819 209.098 313.085 214.628 316.727C224.554 323.443 236.2 327.177 248.185 327.486H251.776C263.763 327.182 275.41 323.447 285.334 316.727C289.519 313.969 293.454 310.854 297.094 307.419C293.451 310.88 289.51 314.019 285.316 316.798C275.392 323.519 263.745 327.253 251.758 327.557H248.167C236.182 327.248 224.536 323.515 214.61 316.798C209.08 313.157 203.989 308.891 199.438 304.085V363.493C200.354 369.285 211.971 374.234 228.417 376.548C235.336 377.507 242.313 377.992 249.298 378H250.555C257.541 377.992 264.518 377.507 271.437 376.548C287.973 374.163 299.626 369.231 300.434 363.403V304.09L300.523 303.995C311.079 292.655 319.399 279.429 325.05 265.011L326.163 262.231C326.784 260.708 327.369 259.132 327.937 257.573C336.697 259.593 348.215 257.76 355.034 247.366C363.94 233.72 359.918 218.8 350.473 214.389C346.377 212.448 341.689 212.161 337.387 213.587ZM168.412 246.433C168.772 247.674 169.141 248.903 169.521 250.12C169.124 248.936 168.73 247.743 168.341 246.541C168.053 245.591 167.712 244.407 167.497 243.6L167.496 243.597L167.495 243.596C167.28 242.789 166.994 241.716 166.85 241.108C166.793 240.865 166.747 240.659 166.7 240.448L166.7 240.446C166.629 240.128 166.556 239.799 166.437 239.314C166.339 238.911 166.253 238.494 166.168 238.077C166.083 237.66 165.997 237.243 165.899 236.84C165.701 236.033 165.54 235.226 165.378 234.383L165.27 233.827C165.073 232.751 164.875 231.657 164.696 230.546C164.552 229.769 164.426 228.98 164.319 228.179C164.3 228.086 164.28 227.993 164.26 227.899L164.259 227.897C164.182 227.537 164.103 227.171 164.103 226.816C163.942 225.686 163.78 224.538 163.636 223.373C163.469 222.094 163.325 220.856 163.206 219.661C163.098 219.159 163.044 218.657 163.044 218.155C163.044 218.155 163.17 217.814 163.044 217.545C162.976 217.399 162.971 217.163 162.967 216.944C162.963 216.759 162.959 216.585 162.918 216.487C162.863 216.355 162.862 216.331 162.857 216.203C162.854 216.123 162.849 216.002 162.828 215.788L162.819 215.691L162.811 215.62C162.816 215.643 162.822 215.663 162.828 215.68C162.869 215.794 162.866 215.86 162.861 215.938C162.856 216.033 162.85 216.145 162.918 216.379C162.987 216.614 162.991 216.79 162.996 216.966C162.999 217.112 163.003 217.258 163.044 217.437C163.134 217.832 163.134 218.047 163.134 218.047C163.148 218.248 163.174 218.449 163.2 218.65C163.239 218.951 163.277 219.252 163.277 219.553C163.394 220.718 163.541 221.913 163.677 223.01L163.708 223.265C163.852 224.431 164.013 225.579 164.175 226.708C164.2 226.864 164.223 227.022 164.246 227.181C164.289 227.479 164.332 227.779 164.391 228.071C164.498 228.872 164.624 229.661 164.768 230.438C164.947 231.55 165.145 232.644 165.342 233.72L165.45 234.275C165.531 234.697 165.62 235.1 165.71 235.504C165.8 235.907 165.89 236.311 165.971 236.732C166.063 237.212 166.184 237.745 166.294 238.23C166.378 238.596 166.455 238.937 166.509 239.207C166.635 239.834 166.779 240.426 166.922 241L167.035 241.441C167.2 242.088 167.348 242.67 167.569 243.493C167.838 244.497 168.125 245.483 168.412 246.433ZM162.712 214.666C162.719 214.777 162.727 214.885 162.735 214.987C162.701 214.698 162.672 214.397 162.668 214.084C162.684 214.277 162.698 214.476 162.712 214.666Z" fill="#FFC7BB"/>
<g style="mix-blend-mode:multiply" opacity="0.15">
<path fill-rule="evenodd" clip-rule="evenodd" d="M300 305.04V363.983C252.251 364.767 216.881 338.957 200 323.528V305C203.798 308.81 207.922 312.245 212.32 315.26C222.917 322.787 235.342 326.975 248.132 327.33H251.964C264.753 326.975 277.179 322.787 287.775 315.26C292.132 312.242 296.223 308.822 300 305.04Z" fill="#7C3830"/>
</g>
<path d="M28.5707 500.143C28.9183 498.763 29.1004 498.027 29.4545 496.688L29.4548 496.687C29.7009 495.757 29.9443 494.836 30.1785 493.928C31.1785 490.357 32.1964 486.786 33.2321 483.518C33.3559 483.124 33.4796 482.732 33.6028 482.342L33.6035 482.34C33.8711 481.492 34.1362 480.652 34.3928 479.821C34.6785 478.928 34.9643 478.036 35.25 477.214C36.0357 474.857 36.8214 472.571 37.6071 470.375C39.3809 465.446 41.1666 460.911 42.9643 456.768C43.4107 455.714 43.8571 454.678 44.3035 453.678L44.5714 453.089C45.5357 450.875 46.5178 448.803 47.5 446.839C50.2915 440.989 53.6024 435.401 57.3928 430.143C57.4429 430.068 57.4969 429.996 57.5494 429.927L57.5494 429.927C57.6091 429.848 57.6667 429.772 57.7143 429.696C58.6964 428.411 59.6428 427.25 60.5535 426.25L60.6607 426.125C61.302 425.403 61.9833 424.702 62.6597 424.005C62.8873 423.771 63.1144 423.537 63.3393 423.303C69.0978 417.511 75.4344 412.323 82.25 407.821L84.3214 406.446C85.369 405.756 86.4405 405.077 87.5357 404.411C90.1786 402.768 92.8928 401.178 95.6964 399.625C100.321 397.053 105.107 394.625 109.982 392.321C115.875 389.536 121.875 386.964 127.839 384.536L131.893 382.928C133.054 382.464 134.232 382.018 135.464 381.589C140.679 379.607 145.857 377.786 150.911 376.089C160.696 372.803 169.964 370.053 178.143 367.786C186.607 365.446 193.857 363.625 199.196 362.339C199.17 362.588 199.17 362.84 199.196 363.089C200.107 368.857 211.696 373.803 228.018 376.089C234.899 377.045 241.838 377.528 248.786 377.536H250.036C256.983 377.528 263.922 377.045 270.804 376.089C287.25 373.768 298.839 368.803 299.643 363C299.661 362.78 299.661 362.559 299.643 362.339C305 363.643 312.321 365.464 320.839 367.821C328.982 370.071 338.196 372.821 347.929 376.089C354.107 378.161 360.429 380.428 366.875 382.928C370.149 384.19 373.417 385.518 376.679 386.911L380.411 388.5L383.411 389.821C390.143 392.857 396.768 396.107 403.054 399.625C406.982 401.803 410.804 404.071 414.446 406.446L415.464 407.125C417.25 408.268 419.036 409.446 420.607 410.696C425.886 414.437 430.838 418.619 435.411 423.196C436.375 424.161 437.304 425.143 438.196 426.143C439.286 427.349 440.312 428.613 441.268 429.928V430.036C442.089 431.143 442.946 432.357 443.786 433.607C446.514 437.809 448.983 442.175 451.179 446.678C452.232 448.821 453.286 451.089 454.375 453.518C455.054 455.053 455.732 456.643 456.411 458.286C456.875 459.391 457.326 460.525 457.787 461.688L457.946 462.089C458.958 464.661 459.976 467.369 461 470.214C461.786 472.411 462.571 474.696 463.357 477.053C464.262 479.827 465.173 482.708 466.089 485.696C466.221 486.14 466.354 486.586 466.488 487.034C466.737 487.866 466.988 488.706 467.232 489.553L467.341 489.933L467.342 489.936C467.689 491.143 468.074 492.477 468.429 493.768C469.054 495.982 469.089 497.803 469.642 500.143H28.5707Z" fill="#EB4D89"/>
<g style="mix-blend-mode:soft-light" opacity="0.8">
<path d="M320.929 367.804C316.518 374.554 309.143 379.911 299.679 383.875C291.583 387.141 283.114 389.391 274.464 390.571C257.921 392.904 241.133 392.904 224.589 390.571C215.891 389.378 207.373 387.111 199.232 383.821C189.822 379.857 182.5 374.5 178.107 367.75C186.572 365.411 193.822 363.589 199.161 362.304C199.135 362.553 199.135 362.804 199.161 363.054C200.072 368.821 211.661 373.768 227.982 376.054C234.864 377.009 241.803 377.492 248.75 377.5H250C256.948 377.492 263.887 377.009 270.768 376.054C287.215 373.732 298.804 368.768 299.607 362.964C299.625 362.744 299.625 362.523 299.607 362.304C305.107 363.625 312.411 365.446 320.929 367.804Z" fill="#F4F4F4"/>
</g>
<path fill-rule="evenodd" clip-rule="evenodd" d="M271.612 164.554C279.202 180.161 294.22 190.089 316.845 191.5C328.363 192.292 337.184 202.068 336.791 213.607V213.839C341.08 212.405 345.758 212.686 349.845 214.625C359.202 219.071 363.202 233.929 354.345 247.518C347.559 257.875 336.095 259.696 327.38 257.679V257.679C326.809 259.25 326.22 260.839 325.595 262.375L324.487 265.143C318.868 279.501 310.593 292.671 300.095 303.964V303.964V340.411C339.13 325.429 344.398 293.357 348.309 285.661C353.362 275.518 395.47 272.071 395.47 218.786C395.47 175.464 369.434 162.286 355.898 149.607C342.362 136.929 342.702 94.6072 305.005 73.3393C264.47 50.4464 226.327 67.9822 213.059 75.9286C210.352 77.5749 207.291 78.5485 204.13 78.7679C190.077 79.7143 149.184 86.625 142.255 134.875C140.982 143.722 136.54 151.806 129.755 157.625C118.077 167.571 98.1124 186.196 101.827 220.518C105.952 258.625 129.362 276.411 144.059 283.018C150.273 285.839 157.505 289.393 159.38 295.964C164.916 315.232 169.505 333.625 200.005 340.357L199.72 303.911C199.806 304.015 199.901 304.11 200.005 304.196L199.737 303.911C189.234 292.612 180.952 279.436 175.327 265.071L174.22 262.304C173.63 260.768 173.041 259.179 172.434 257.607V257.607C163.72 259.625 152.255 257.804 145.47 247.446C136.541 233.857 140.612 219 149.97 214.554C154.062 212.614 158.746 212.332 163.041 213.768V213.768C162.73 205.882 167.413 198.653 174.737 195.714C199.452 185.929 206.237 171.25 207.398 157.732C209.934 128.464 229.22 128.625 229.22 128.625C229.22 128.625 253.184 126.714 271.612 164.554Z" fill="#2B0988"/>
</svg>
