<svg aria-hidden="true" viewBox="0 0 24 17" fill="none" xmlns="http://www.w3.org/2000/svg">
<path fill-rule="evenodd" clip-rule="evenodd" d="M23.2061 4.8653L12.1191 0.0609437C11.9316 -0.0203146 11.7189 -0.0203146 11.5313 0.0609437L0.444363 4.8653C-0.148052 5.12201 -0.14819 5.96494 0.444363 6.22165L4.43392 7.95044V12.5652C4.43392 15.052 7.68056 17 11.8252 17C15.9699 17 19.2166 15.052 19.2166 12.5652V7.95044L19.9557 7.63016V15.5217C19.9557 15.9299 20.2866 16.2609 20.6948 16.2609C21.103 16.2609 21.434 15.9299 21.434 15.5217V6.98961L23.2061 6.2217C23.7985 5.96499 23.7986 5.12206 23.2061 4.8653ZM11.8252 1.54466L21.0533 5.5435L20.3214 5.86063L11.9169 4.81005C11.5118 4.75974 11.1424 5.04676 11.0918 5.4518C11.0412 5.85685 11.3285 6.22627 11.7335 6.2769L17.6532 7.01687L11.8252 9.5423L2.59722 5.54345L11.8252 1.54466ZM16.1701 14.5323C17.1667 13.9787 17.7383 13.2617 17.7383 12.5653V8.59108L12.1191 11.0261C11.9313 11.1075 11.7185 11.1072 11.5313 11.0261L5.91218 8.59108V12.5653C5.91218 13.2617 6.48376 13.9787 7.48038 14.5323C9.8609 15.8549 13.7965 15.851 16.1701 14.5323Z" fill="currentColor"/>
</svg>
