<svg aria-hidden="true" viewBox="0 0 48 48" fill="none" xmlns="http://www.w3.org/2000/svg">
    <path d="M17.9185 26.074L21.6953 29.8507L15.0846 36.4614L11.3079 32.6833L17.9185 26.074Z" fill="#9AAAB4"/>
    <path d="M1.56419 38.6502L9.41683 30.7989C10.4598 29.7559 12.1506 29.7559 13.1936 30.7989L16.9703 34.5757C18.0133 35.6187 18.0133 37.3094 16.9703 38.3524L9.11902 46.2037C7.03299 48.2911 3.64888 48.2911 1.56285 46.2037C-0.52184 44.119 -0.520505 40.7363 1.56419 38.6502Z" fill="#66757F"/>
    <path d="M29.7402 36.0581C39.6974 36.0581 47.7692 27.9862 47.7692 18.029C47.7692 8.07187 39.6974 0 29.7402 0C19.7831 0 11.7112 8.07187 11.7112 18.029C11.7112 27.9862 19.7831 36.0581 29.7402 36.0581Z" fill="#8899A6"/>
    <path d="M29.7403 30.7161C36.7472 30.7161 42.4274 25.0359 42.4274 18.029C42.4274 11.0221 36.7472 5.34193 29.7403 5.34193C22.7334 5.34193 17.0532 11.0221 17.0532 18.029C17.0532 25.0359 22.7334 30.7161 29.7403 30.7161Z" fill="#BBDDF5"/>
</svg>
