<svg aria-hidden="true" viewBox="0 0 49 38" fill="none" xmlns="http://www.w3.org/2000/svg">
    <path d="M48.8571 10.1786C48.8571 6.05557 44.7857 0 24.4286 0C4.07143 0 0 6.05557 0 10.1786C0 10.2396 0.0257857 10.2817 0.0298571 10.3401C0.0135714 10.6061 0 10.8856 0 11.1964C0 14.7562 3.03864 16.2857 6.78571 16.2857C10.5328 16.2857 13.5714 14.7562 13.5714 11.1964C13.5714 10.9006 13.5429 10.6373 13.5022 10.3862C16.7933 9.90986 20.4956 9.5 24.4286 9.5C28.3616 9.5 32.0639 9.90986 35.3549 10.3862C35.3142 10.6373 35.2857 10.9006 35.2857 11.1964C35.2857 14.7562 38.323 16.2857 42.0714 16.2857C45.8199 16.2857 48.8571 14.7562 48.8571 11.1964C48.8571 10.8911 48.8449 10.6142 48.8246 10.3536C48.83 10.2912 48.8571 10.2451 48.8571 10.1786Z" fill="#BE1931"/>
    <path d="M47.4104 25.7857C46.7563 24.3865 44.2754 20.0993 42.0253 16.2762C39.9109 12.6839 36.6429 9.5 33.9286 9.5V6.78571C33.9286 5.28743 32.7126 4.07143 31.2143 4.07143C29.716 4.07143 28.5 5.28743 28.5 6.78571V9.5H20.3571V6.78571C20.3571 5.28743 19.1411 4.07143 17.6429 4.07143C16.1446 4.07143 14.9286 5.28743 14.9286 6.78571V9.5C12.2143 9.5 8.94357 12.6906 6.82643 16.2857C4.57764 20.1061 2.0995 24.3879 1.44671 25.7857C0.662286 27.4672 0 28.5 0 31.2143C0 33.9286 2.43064 38 5.42857 38H43.4286C46.4265 38 48.8571 33.9286 48.8571 31.2143C48.8571 28.5 48.2491 27.5826 47.4104 25.7857Z" fill="#DD2E44"/>
    <path d="M27.2053 14.6816C27.2053 15.295 25.9622 15.7917 24.4286 15.7917C22.895 15.7917 21.6532 15.295 21.6532 14.6816C21.6532 14.0681 22.895 13.5714 24.4286 13.5714C25.9622 13.5714 27.2053 14.0681 27.2053 14.6816ZM20.5417 14.6816C20.5417 15.295 19.2999 15.7917 17.7664 15.7917C16.2328 15.7917 14.991 15.295 14.991 14.6816C14.991 14.0681 16.2342 13.5714 17.7664 13.5714C19.2986 13.5714 20.5417 14.0681 20.5417 14.6816ZM33.8662 14.6816C33.8662 15.295 32.6244 15.7917 31.0908 15.7917C29.5572 15.7917 28.3141 15.295 28.3141 14.6816C28.3141 14.0681 29.5572 13.5714 31.0908 13.5714C32.6244 13.5714 33.8662 14.0681 33.8662 14.6816ZM27.759 18.5684C27.759 19.4899 26.2675 20.235 24.4286 20.235C22.5897 20.235 21.0968 19.4899 21.0968 18.5684C21.0968 17.6496 22.5883 16.9032 24.4286 16.9032C26.2689 16.9032 27.759 17.6483 27.759 18.5684ZM35.5327 18.5684C35.5327 19.4899 34.0399 20.235 32.2023 20.235C30.3634 20.235 28.8705 19.4899 28.8705 18.5684C28.8705 17.6496 30.3634 16.9032 32.2023 16.9032C34.0399 16.9032 35.5327 17.6483 35.5327 18.5684ZM19.9867 18.5684C19.9867 19.4899 18.4952 20.235 16.6562 20.235C14.8173 20.235 13.3244 19.4899 13.3244 18.5684C13.3244 17.6496 14.8159 16.9032 16.6562 16.9032C18.4952 16.9032 19.9867 17.6483 19.9867 18.5684ZM28.8692 23.5641C28.8692 24.7936 26.8809 25.7857 24.4286 25.7857C21.9762 25.7857 19.9867 24.7936 19.9867 23.5641C19.9867 22.3386 21.9762 21.3438 24.4286 21.3438C26.8809 21.3451 28.8692 22.3386 28.8692 23.5641ZM38.8645 23.5641C38.8645 24.7923 36.8736 25.7857 34.4226 25.7857C31.9702 25.7857 29.9807 24.7936 29.9807 23.5641C29.9807 22.3386 31.9702 21.3438 34.4226 21.3438C36.8736 21.3451 38.8645 22.3386 38.8645 23.5641ZM18.8765 23.5641C18.8765 24.7923 16.8869 25.7857 14.4346 25.7857C11.9822 25.7857 9.99402 24.7936 9.99402 23.5641C9.99402 22.3386 11.9822 21.3438 14.4346 21.3438C16.8869 21.3451 18.8765 22.3386 18.8765 23.5641Z" fill="white"/>
</svg>
