<svg aria-hidden="true" viewBox="0 0 46 46" fill="none" xmlns="http://www.w3.org/2000/svg">
    <path d="M6.21283 11.6371C7.41424 10.7974 9.22531 10.9584 10.304 11.8493L9.06683 10.051C8.07119 8.63102 8.42778 7.09475 9.84903 6.09783C11.2703 5.10474 15.2976 7.7747 15.2976 7.7747C14.293 6.34067 14.4809 4.5232 15.9149 3.51734C17.3489 2.51531 19.3274 2.86167 20.332 4.29826L33.6498 23.1119L31.9525 39.5675L17.7873 34.4014L5.43191 16.0824C4.41837 14.6394 4.76857 12.6494 6.21283 11.6371Z" fill="#B78B60"/>
    <path d="M3.44441 22.1035C3.44441 22.1035 1.9976 19.9946 4.10775 18.5491C6.21534 17.1036 7.66087 19.2112 7.66087 19.2112L14.3722 28.9989C14.6035 28.6129 14.8566 28.232 15.139 27.8562L5.82424 14.2738C5.82424 14.2738 4.3787 12.1663 6.48757 10.7207C8.59516 9.27519 10.0407 11.3828 10.0407 11.3828L18.8021 24.16C19.128 23.8941 19.4616 23.627 19.8054 23.365L9.64832 8.5505C9.64832 8.5505 8.20279 6.44291 10.3117 4.99738C12.4192 3.55185 13.8648 5.65944 13.8648 5.65944L24.0219 20.4714C24.3951 20.2426 24.7644 20.0445 25.1351 19.8349L15.6413 5.99047C15.6413 5.99047 14.1958 3.88288 16.3034 2.43734C18.411 0.991808 19.8565 3.0994 19.8565 3.0994L29.8947 17.7388L31.4208 19.9652C25.0967 24.3031 24.4948 32.4638 28.108 37.7334C28.8301 38.7878 29.8845 38.0657 29.8845 38.0657C25.5479 31.7404 26.872 24.6329 33.1974 20.2963L31.3326 10.9636C31.3326 10.9636 30.636 8.50449 33.0938 7.80665C35.5529 7.11008 36.2507 9.56915 36.2507 9.56915L38.4043 15.9648C39.2581 18.5005 40.1668 21.0273 41.3695 23.4174C44.7655 30.1658 42.7371 38.5527 36.3338 42.9455C29.349 47.7346 19.8003 45.9542 15.01 38.9706L3.44441 22.1035Z" fill="#D4AB88"/>
    <path d="M15.3373 40.8993C10.2249 40.8993 5.05877 35.7332 5.05877 30.6208C5.05877 29.914 4.54114 29.3427 3.83435 29.3427C3.12756 29.3427 2.50256 29.914 2.50256 30.6208C2.50256 38.2894 7.66865 43.4555 15.3373 43.4555C16.0441 43.4555 16.6154 42.8305 16.6154 42.1237C16.6154 41.4169 16.0441 40.8993 15.3373 40.8993Z" fill="#5DADEC"/>
    <path d="M8.94672 43.4018C5.11241 43.4018 2.5562 40.8456 2.5562 37.0113C2.5562 36.3045 1.98489 35.7332 1.2781 35.7332C0.571312 35.7332 0 36.3045 0 37.0113C0 42.1237 3.83431 45.958 8.94672 45.958C9.65351 45.958 10.2248 45.3867 10.2248 44.6799C10.2248 43.9731 9.65351 43.4018 8.94672 43.4018ZM30.6745 2.50252C29.9689 2.50252 29.3963 3.07511 29.3963 3.78063C29.3963 4.48614 29.9689 5.05873 30.6745 5.05873C35.7869 5.05873 40.8993 9.64584 40.8993 15.2835C40.8993 15.9891 41.4719 16.5616 42.1774 16.5616C42.8829 16.5616 43.4555 15.9891 43.4555 15.2835C43.4555 8.23609 38.3431 2.50252 30.6745 2.50252Z" fill="#5DADEC"/>
    <path d="M37.065 0C36.3595 0 35.7869 0.51891 35.7869 1.22442C35.7869 1.92993 36.3595 2.5562 37.065 2.5562C40.8993 2.5562 43.4018 5.39998 43.4018 8.89304C43.4018 9.59855 44.0268 10.1711 44.7336 10.1711C45.4404 10.1711 45.958 9.59855 45.958 8.89304C45.958 3.98896 42.1774 0 37.065 0Z" fill="#5DADEC"/>
</svg>
